<svg xmlns="http://www.w3.org/2000/svg" width="19.341" height="29" viewBox="0 0 19.341 29">
  <path id="Icon_ionic-ios-arrow-round-back" data-name="Icon ionic-ios-arrow-round-back" d="M10.506,18.971a1.316,1.316,0,0,0,.01-1.853L4.4,10.983H27.7a1.31,1.31,0,0,0,0-2.619H4.4L10.526,2.23a1.326,1.326,0,0,0-.01-1.853,1.3,1.3,0,0,0-1.843.01L.373,8.747h0A1.47,1.47,0,0,0,.1,9.16a1.25,1.25,0,0,0-.1.5,1.313,1.313,0,0,0,.373.917l8.3,8.361A1.283,1.283,0,0,0,10.506,18.971Z" transform="translate(0 29) rotate(-90)" fill="#68a797"/>
</svg>
