<svg xmlns="http://www.w3.org/2000/svg" width="43.482" height="29" viewBox="0 0 43.482 29">
  <path id="Icon_ionic-ios-arrow-round-back" data-name="Icon ionic-ios-arrow-round-back" d="M23.635,11.807a1.974,1.974,0,0,1,.015,2.779l-9.168,9.2H49.415a1.963,1.963,0,0,1,0,3.927H14.482l9.183,9.2a1.988,1.988,0,0,1-.015,2.779,1.955,1.955,0,0,1-2.764-.015L8.441,27.137h0a2.2,2.2,0,0,1-.408-.619,1.874,1.874,0,0,1-.151-.755,1.969,1.969,0,0,1,.559-1.374L20.886,11.852A1.924,1.924,0,0,1,23.635,11.807Z" transform="translate(-7.882 -11.252)" fill="#68a797"/>
</svg>
