<svg xmlns="http://www.w3.org/2000/svg" width="19.341" height="29" viewBox="0 0 19.341 29">
  <path id="Icon_ionic-ios-arrow-round-back" data-name="Icon ionic-ios-arrow-round-back" d="M18.388,11.622a1.316,1.316,0,0,1,.01,1.853L12.284,19.61h23.3a1.31,1.31,0,0,1,0,2.619h-23.3l6.124,6.134a1.326,1.326,0,0,1-.01,1.853,1.3,1.3,0,0,1-1.843-.01l-8.3-8.361h0a1.47,1.47,0,0,1-.272-.413,1.25,1.25,0,0,1-.1-.5,1.313,1.313,0,0,1,.373-.917l8.3-8.361A1.283,1.283,0,0,1,18.388,11.622Z" transform="translate(30.593 -7.882) rotate(90)" fill="#68a797"/>
</svg>
