<svg width="10" height="12" viewBox="0 0 10 12" fill="none" xmlns="http://www.w3.org/2000/svg">
<path d="M4.90909 0C1.63841 2.73 0 5.088 0 7.08C0 10.068 2.33182 12 4.90909 12C7.48636 12 9.81818 10.068 9.81818 7.08C9.81818 5.088 8.17977 2.73 4.90909 0ZM4.90909 10.8C2.85341 10.8 1.22727 9.258 1.22727 7.08C1.22727 5.676 2.42386 3.816 4.90909 1.596C7.39432 3.816 8.59091 5.67 8.59091 7.08C8.59091 9.258 6.96477 10.8 4.90909 10.8ZM2.35023 7.2C2.57727 7.2 2.76136 7.356 2.80432 7.572C3.05591 8.904 4.20341 9.36 5.03795 9.294C5.30182 9.282 5.52273 9.486 5.52273 9.744C5.52273 9.984 5.32636 10.182 5.08091 10.194C3.77386 10.272 2.24591 9.54 1.89614 7.722C1.84705 7.452 2.06795 7.2 2.35023 7.2Z" fill="#F96B70"/>
</svg>
