<svg xmlns="http://www.w3.org/2000/svg" width="37.293" height="29" viewBox="0 0 37.293 29">
  <path id="Icon_awesome-home" data-name="Icon awesome-home" d="M18.151,9.777,6.215,19.608v10.61a1.036,1.036,0,0,0,1.036,1.036l7.255-.019A1.036,1.036,0,0,0,15.536,30.2V24a1.036,1.036,0,0,1,1.036-1.036h4.143A1.036,1.036,0,0,1,21.751,24v6.192a1.036,1.036,0,0,0,1.036,1.039l7.252.02a1.036,1.036,0,0,0,1.036-1.036V19.6L19.141,9.777A.789.789,0,0,0,18.151,9.777ZM37,16.459,31.593,12V3.03a.777.777,0,0,0-.777-.777H27.19a.777.777,0,0,0-.777.777v4.7l-5.8-4.769a3.107,3.107,0,0,0-3.949,0L.281,16.459a.777.777,0,0,0-.1,1.094L1.828,19.56a.777.777,0,0,0,1.095.106L18.151,7.123a.789.789,0,0,1,.991,0L34.37,19.665a.777.777,0,0,0,1.094-.1l1.651-2.007a.777.777,0,0,0-.11-1.1Z" transform="translate(0.001 -2.254)" fill="#68a797"/>
</svg>
