<svg width="272" height="41" viewBox="0 0 272 41" fill="none" xmlns="http://www.w3.org/2000/svg">
<path d="M265.116 8.40018H268.335V32.5588H265.116V8.40018Z" fill="#29333F"/>
<path d="M3.5211 8.56177H13.4137C15.8952 8.56177 18.0973 9.0393 20.0199 9.99436C21.9426 10.9494 23.4293 12.2952 24.48 14.0317C25.5531 15.7464 26.0896 17.7217 26.0896 19.9574C26.0896 22.1931 25.5531 24.1792 24.48 25.9156C23.4293 27.6304 21.9426 28.9653 20.0199 29.9204C18.0973 30.8754 15.8952 31.3529 13.4137 31.3529H3.5211V8.56177ZM13.2125 28.5203C15.1128 28.5203 16.7783 28.1622 18.2091 27.4459C19.6622 26.7296 20.7801 25.7311 21.5625 24.4505C22.345 23.1481 22.7362 21.6504 22.7362 19.9574C22.7362 18.2643 22.345 16.7774 21.5625 15.4968C20.7801 14.1944 19.6622 13.1851 18.2091 12.4688C16.7783 11.7525 15.1128 11.3944 13.2125 11.3944H6.87452V28.5203H13.2125ZM29.7506 14.0968H32.9699V31.3529H29.7506V14.0968ZM31.3602 10.7758C30.7343 10.7758 30.2089 10.5804 29.7841 10.1897C29.3817 9.79901 29.1805 9.32148 29.1805 8.75712C29.1805 8.19277 29.3817 7.71524 29.7841 7.32454C30.2089 6.91212 30.7343 6.70592 31.3602 6.70592C31.9862 6.70592 32.5004 6.90127 32.9028 7.29198C33.3276 7.66098 33.54 8.12765 33.54 8.69201C33.54 9.27806 33.3276 9.7773 32.9028 10.1897C32.5004 10.5804 31.9862 10.7758 31.3602 10.7758ZM44.5828 13.934C47.042 13.934 48.9199 14.52 50.2165 15.6922C51.5356 16.8643 52.1951 18.6116 52.1951 20.9341V31.3529H49.1434V29.0738C48.6069 29.8769 47.8356 30.4956 46.8296 30.9297C45.8459 31.3421 44.6722 31.5483 43.3085 31.5483C41.3188 31.5483 39.7203 31.0816 38.5131 30.1483C37.3282 29.2149 36.7358 27.9885 36.7358 26.4691C36.7358 24.9497 37.3059 23.7342 38.446 22.8225C39.5862 21.8892 41.397 21.4225 43.8786 21.4225H48.9758V20.8039C48.9758 19.4581 48.5734 18.4271 47.7685 17.7108C46.9637 16.9945 45.7788 16.6364 44.2139 16.6364C43.1632 16.6364 42.1348 16.81 41.1288 17.1573C40.1227 17.4829 39.2732 17.9279 38.5802 18.4922L37.2388 16.148C38.1554 15.4317 39.2508 14.889 40.5251 14.52C41.7994 14.1293 43.152 13.934 44.5828 13.934ZM43.845 29.1389C45.0746 29.1389 46.1365 28.8785 47.0308 28.3575C47.925 27.8149 48.5734 27.0552 48.9758 26.0784V23.6691H44.0127C41.2853 23.6691 39.9215 24.559 39.9215 26.3389C39.9215 27.2071 40.268 27.8909 40.9611 28.3901C41.6541 28.8893 42.6154 29.1389 43.845 29.1389ZM66.5697 13.934C68.2911 13.934 69.8337 14.303 71.1974 15.041C72.5611 15.779 73.6231 16.81 74.3832 18.1341C75.1656 19.4581 75.5569 20.9884 75.5569 22.7249C75.5569 24.4613 75.1656 26.0024 74.3832 27.3482C73.6231 28.6723 72.5611 29.7033 71.1974 30.4413C69.8337 31.1793 68.2911 31.5483 66.5697 31.5483C65.2507 31.5483 64.0434 31.2987 62.948 30.7994C61.8525 30.3002 60.9471 29.5731 60.2317 28.618V31.3529H57.1466V7.1943H60.3659V16.7015C61.0813 15.7898 61.9755 15.1061 63.0486 14.6503C64.1217 14.1727 65.2954 13.934 66.5697 13.934ZM66.3014 28.8134C67.4416 28.8134 68.4588 28.5637 69.353 28.0645C70.2696 27.5436 70.985 26.8273 71.4992 25.9156C72.0358 24.9823 72.3041 23.9187 72.3041 22.7249C72.3041 21.531 72.0358 20.4783 71.4992 19.5667C70.985 18.6333 70.2696 17.917 69.353 17.4178C68.4588 16.9185 67.4416 16.6689 66.3014 16.6689C65.1836 16.6689 64.1664 16.9185 63.2498 17.4178C62.3332 17.917 61.6178 18.6333 61.1036 19.5667C60.5894 20.4783 60.3323 21.531 60.3323 22.7249C60.3323 23.9187 60.5894 24.9823 61.1036 25.9156C61.6178 26.8273 62.3332 27.5436 63.2498 28.0645C64.1664 28.5637 65.1836 28.8134 66.3014 28.8134ZM95.0618 22.8225C95.0618 23.0613 95.0394 23.376 94.9947 23.7667H80.575C80.7762 25.2862 81.458 26.5125 82.6206 27.4459C83.8054 28.3575 85.2698 28.8134 87.0135 28.8134C89.1374 28.8134 90.8476 28.1188 92.1443 26.7296L93.9216 28.7482C93.1168 29.6599 92.1107 30.3545 90.9035 30.832C89.7186 31.3095 88.3884 31.5483 86.9129 31.5483C85.035 31.5483 83.3695 31.1793 81.9163 30.4413C80.4632 29.6816 79.3342 28.6289 78.5294 27.2831C77.7469 25.9373 77.3557 24.4179 77.3557 22.7249C77.3557 21.0535 77.7357 19.5449 78.4958 18.1992C79.2783 16.8534 80.3402 15.8115 81.6816 15.0735C83.0453 14.3138 84.5767 13.934 86.2758 13.934C87.9749 13.934 89.4839 14.3138 90.8029 15.0735C92.1443 15.8115 93.1838 16.8534 93.9216 18.1992C94.6817 19.5449 95.0618 21.0861 95.0618 22.8225ZM86.2758 16.5712C84.7332 16.5712 83.4366 17.0271 82.3858 17.9387C81.3574 18.8504 80.7538 20.0442 80.575 21.5202H91.9766C91.7978 20.0659 91.183 18.8829 90.1322 17.9713C89.1038 17.0379 87.8184 16.5712 86.2758 16.5712ZM108.519 30.3436C108.05 30.7343 107.468 31.0382 106.775 31.2553C106.082 31.4506 105.367 31.5483 104.629 31.5483C102.841 31.5483 101.455 31.0816 100.471 30.1483C99.4873 29.2149 98.9955 27.88 98.9955 26.1435V16.6689H95.9774V14.0968H98.9955V10.3199H102.215V14.0968H107.312V16.6689H102.215V26.0133C102.215 26.9467 102.449 27.6629 102.919 28.1622C103.411 28.6614 104.104 28.911 104.998 28.911C105.982 28.911 106.82 28.6397 107.513 28.0971L108.519 30.3436ZM126.879 22.8225C126.879 23.0613 126.856 23.376 126.812 23.7667H112.392C112.593 25.2862 113.275 26.5125 114.437 27.4459C115.622 28.3575 117.087 28.8134 118.83 28.8134C120.954 28.8134 122.665 28.1188 123.961 26.7296L125.739 28.7482C124.934 29.6599 123.928 30.3545 122.72 30.832C121.536 31.3095 120.205 31.5483 118.73 31.5483C116.852 31.5483 115.186 31.1793 113.733 30.4413C112.28 29.6816 111.151 28.6289 110.346 27.2831C109.564 25.9373 109.173 24.4179 109.173 22.7249C109.173 21.0535 109.553 19.5449 110.313 18.1992C111.095 16.8534 112.157 15.8115 113.499 15.0735C114.862 14.3138 116.394 13.934 118.093 13.934C119.792 13.934 121.301 14.3138 122.62 15.0735C123.961 15.8115 125.001 16.8534 125.739 18.1992C126.499 19.5449 126.879 21.0861 126.879 22.8225ZM118.093 16.5712C116.55 16.5712 115.253 17.0271 114.203 17.9387C113.174 18.8504 112.571 20.0442 112.392 21.5202H123.794C123.615 20.0659 123 18.8829 121.949 17.9713C120.921 17.0379 119.635 16.5712 118.093 16.5712ZM135.44 31.5483C133.987 31.5483 132.589 31.3638 131.248 30.9948C129.907 30.6041 128.856 30.1157 128.096 29.5297L129.437 27.0552C130.22 27.5978 131.17 28.0319 132.288 28.3575C133.405 28.6831 134.534 28.8459 135.675 28.8459C138.491 28.8459 139.9 28.0645 139.9 26.5017C139.9 25.9807 139.71 25.5683 139.33 25.2644C138.95 24.9606 138.469 24.7435 137.888 24.6133C137.329 24.4613 136.524 24.2985 135.473 24.1249C134.043 23.9078 132.869 23.6582 131.952 23.376C131.058 23.0939 130.287 22.6163 129.638 21.9434C128.99 21.2706 128.666 20.3264 128.666 19.1108C128.666 17.548 129.337 16.2999 130.678 15.3666C132.019 14.4115 133.819 13.934 136.077 13.934C137.262 13.934 138.447 14.0751 139.632 14.3572C140.817 14.6394 141.789 15.0193 142.549 15.4968L141.174 17.9713C139.721 17.0596 138.011 16.6038 136.043 16.6038C134.68 16.6038 133.64 16.8209 132.925 17.255C132.209 17.6891 131.852 18.2643 131.852 18.9806C131.852 19.5449 132.053 19.9899 132.455 20.3155C132.858 20.6411 133.35 20.8799 133.931 21.0318C134.534 21.1837 135.373 21.3574 136.446 21.5527C137.877 21.7915 139.028 22.052 139.9 22.3342C140.794 22.5946 141.554 23.0504 142.18 23.7016C142.806 24.3528 143.119 25.2644 143.119 26.4366C143.119 27.9994 142.426 29.2475 141.04 30.1808C139.676 31.0925 137.81 31.5483 135.44 31.5483ZM165.103 31.6134C162.755 31.6134 160.632 31.1142 158.731 30.1157C156.853 29.0955 155.378 27.7064 154.305 25.9482C153.232 24.1683 152.695 22.1714 152.695 19.9574C152.695 17.7434 153.232 15.7573 154.305 13.9991C155.378 12.2192 156.865 10.83 158.765 9.83156C160.665 8.81139 162.789 8.3013 165.136 8.3013C166.969 8.3013 168.646 8.60518 170.166 9.21295C171.687 9.79901 172.983 10.6781 174.056 11.8502L171.877 13.9014C170.111 12.0998 167.908 11.199 165.27 11.199C163.527 11.199 161.951 11.5789 160.542 12.3386C159.134 13.0983 158.027 14.151 157.222 15.4968C156.44 16.8209 156.049 18.3077 156.049 19.9574C156.049 21.607 156.44 23.1047 157.222 24.4505C158.027 25.7745 159.134 26.8164 160.542 27.5761C161.951 28.3358 163.527 28.7157 165.27 28.7157C167.886 28.7157 170.088 27.804 171.877 25.9807L174.056 28.0319C172.983 29.2041 171.675 30.094 170.133 30.7018C168.613 31.3095 166.936 31.6134 165.103 31.6134ZM184.223 31.5483C182.457 31.5483 180.87 31.1684 179.462 30.4087C178.053 29.649 176.947 28.6072 176.142 27.2831C175.359 25.9373 174.968 24.4179 174.968 22.7249C174.968 21.0318 175.359 19.5232 176.142 18.1992C176.947 16.8534 178.053 15.8115 179.462 15.0735C180.87 14.3138 182.457 13.934 184.223 13.934C185.99 13.934 187.566 14.3138 188.952 15.0735C190.36 15.8115 191.456 16.8534 192.238 18.1992C193.043 19.5232 193.445 21.0318 193.445 22.7249C193.445 24.4179 193.043 25.9373 192.238 27.2831C191.456 28.6072 190.36 29.649 188.952 30.4087C187.566 31.1684 185.99 31.5483 184.223 31.5483ZM184.223 28.8134C185.364 28.8134 186.381 28.5637 187.275 28.0645C188.192 27.5436 188.907 26.8273 189.421 25.9156C189.935 24.9823 190.193 23.9187 190.193 22.7249C190.193 21.531 189.935 20.4783 189.421 19.5667C188.907 18.6333 188.192 17.917 187.275 17.4178C186.381 16.9185 185.364 16.6689 184.223 16.6689C183.083 16.6689 182.055 16.9185 181.138 17.4178C180.244 17.917 179.529 18.6333 178.992 19.5667C178.478 20.4783 178.221 21.531 178.221 22.7249C178.221 23.9187 178.478 24.9823 178.992 25.9156C179.529 26.8273 180.244 27.5436 181.138 28.0645C182.055 28.5637 183.083 28.8134 184.223 28.8134ZM206.381 13.934C208.639 13.934 210.427 14.5743 211.746 15.8549C213.088 17.1139 213.758 18.9697 213.758 21.4225V31.3529H210.539V21.7807C210.539 20.1093 210.126 18.8504 209.298 18.0038C208.471 17.1573 207.286 16.734 205.744 16.734C204 16.734 202.625 17.2333 201.619 18.2317C200.613 19.2085 200.11 20.6194 200.11 22.4644V31.3529H196.891V14.0968H199.976V16.7015C200.624 15.8115 201.496 15.1278 202.592 14.6503C203.709 14.1727 204.972 13.934 206.381 13.934ZM228.704 30.3436C228.234 30.7343 227.653 31.0382 226.96 31.2553C226.267 31.4506 225.551 31.5483 224.814 31.5483C223.025 31.5483 221.639 31.0816 220.655 30.1483C219.672 29.2149 219.18 27.88 219.18 26.1435V16.6689H216.162V14.0968H219.18V10.3199H222.399V14.0968H227.496V16.6689H222.399V26.0133C222.399 26.9467 222.634 27.6629 223.103 28.1622C223.595 28.6614 224.288 28.911 225.182 28.911C226.166 28.911 227.004 28.6397 227.698 28.0971L228.704 30.3436ZM234.675 16.9945C235.234 15.996 236.061 15.2363 237.157 14.7154C238.252 14.1944 239.582 13.934 241.147 13.934V16.9619C240.968 16.9402 240.722 16.9294 240.409 16.9294C238.666 16.9294 237.291 17.4395 236.285 18.4597C235.301 19.4581 234.809 20.8907 234.809 22.7574V31.3529H231.59V14.0968H234.675V16.9945Z" fill="#29333F"/>
<path d="M252.749 12.0588C246.543 16.7226 243.434 20.7508 243.434 24.1538C243.434 29.2583 247.859 32.5588 252.749 32.5588C257.639 32.5588 262.064 29.2583 262.064 24.1538C262.064 20.7508 258.955 16.7226 252.749 12.0588ZM252.749 30.5088C248.848 30.5088 245.763 27.8746 245.763 24.1538C245.763 21.7553 248.033 18.5778 252.749 14.7853C257.465 18.5778 259.735 21.7451 259.735 24.1538C259.735 27.8746 256.65 30.5088 252.749 30.5088ZM247.894 24.3588C248.324 24.3588 248.674 24.6253 248.755 24.9943C249.233 27.2698 251.41 28.0488 252.994 27.9361C253.494 27.9156 253.914 28.2641 253.914 28.7048C253.914 29.1148 253.54 29.4531 253.074 29.4736C250.595 29.6068 247.695 28.3563 247.032 25.2506C246.939 24.7893 247.357 24.3588 247.894 24.3588Z" fill="#F96B70"/>
</svg>
